<svg id="Layer_1" data-name="Layer 1" xmlns="http://www.w3.org/2000/svg" viewBox="0 0 28.25 26.77" fill="white">
    <path d="M27.43,15.23a3.25,3.25,0,0,1,.47.1A1.73,1.73,0,0,1,29.12,17c0,1.38,0,2.77,0,4.15A1.81,1.81,0,0,1,27.43,23v.18c0,.57,0,1.15,0,1.72A3.67,3.67,0,0,1,26,27.52a3.79,3.79,0,0,1-2.51.86H4.79A3.89,3.89,0,0,1,.87,24.46V10.11A3.58,3.58,0,0,1,4.35,6.56c1.1,0,2.21,0,3.31,0,.14,0,.19,0,.23-.18a6.61,6.61,0,0,1,5.19-4.63,6.71,6.71,0,0,1,7,3,6.87,6.87,0,0,1,.73,1.61.18.18,0,0,0,.21.16h1.68a2.64,2.64,0,0,1,2.71,2.73c0,.34,0,.67,0,1a.23.23,0,0,0,.12.22,3.74,3.74,0,0,1,1.87,2.8c.07.52,0,1.06.05,1.6ZM2.84,9.67h0a8.08,8.08,0,0,0-.09.86q0,7,0,14a2,2,0,0,0,.27,1,2,2,0,0,0,1.81,1.06H23.55a2,2,0,0,0,2-1.81c.05-.56,0-1.13,0-1.7,0,0,0,0,0-.05H23a3.87,3.87,0,0,1-.29-7.74c.87,0,1.74,0,2.61,0h.29a.45.45,0,0,0,0-.08c0-.46,0-.93,0-1.39a2,2,0,0,0-2.1-2H12.84c-2.25,0-4.51,0-6.77,0a3.43,3.43,0,0,1-2.7-1.33A8.23,8.23,0,0,1,2.84,9.67Zm13.3.28h2.77A.16.16,0,0,0,19,9.85a6.41,6.41,0,0,0,.21-1.06,4.72,4.72,0,0,0-1.91-4.31A4.67,4.67,0,0,0,12,4,4.75,4.75,0,0,0,9.42,8.08,4.64,4.64,0,0,0,9.68,10h2.84c0-.39.17-.51.55-.51h.39a.41.41,0,0,1,.43.4s0,.11.08.11h.81a3.37,3.37,0,0,1,0-.45A.5.5,0,0,0,14.43,9c-.38-.17-.77-.34-1.14-.54a1.31,1.31,0,0,1-.74-1.09c0-.16,0-.31,0-.47a1.28,1.28,0,0,1,.9-1.32c.19-.07.22-.16.22-.34a.39.39,0,0,1,.4-.43,5,5,0,0,1,.55,0,.41.41,0,0,1,.4.42v.27A1.39,1.39,0,0,1,16.1,7c0,.19-.08.28-.27.3H15A.27.27,0,0,1,14.74,7V6.86c0-.23-.15-.34-.44-.34s-.4.12-.41.36a1.61,1.61,0,0,0,0,.31.83.83,0,0,0,.14.3.73.73,0,0,0,.28.17c.37.18.75.33,1.12.52a1.24,1.24,0,0,1,.7,1.19Zm11.15,7.12H23a2.06,2.06,0,1,0,0,4.12h4.34ZM7.56,8.38H4.38a.22.22,0,0,0,0,.09A1.78,1.78,0,0,0,6,10c.58,0,1.17,0,1.75,0ZM20.92,10h2.64c0-.32,0-.61,0-.91a.79.79,0,0,0-.78-.68H22.1c-.33,0-.67,0-1,0Z" transform="translate(-0.87 -1.62)" />
</svg>