<svg id="Layer_1" data-name="Layer 1" xmlns="http://www.w3.org/2000/svg" viewBox="0 0 28.25 21.82" fill="white">
    <path d="M29.12,17a1.73,1.73,0,0,0-1.22-1.66,3.25,3.25,0,0,0-.47-.1v-.32c0-.53,0-1.08-.05-1.6a3.74,3.74,0,0,0-1.87-2.8.23.23,0,0,1-.12-.22v-1a2.64,2.64,0,0,0-2.52-2.72H4.32A3.58,3.58,0,0,0,.87,10.11V24.46a3.89,3.89,0,0,0,3.92,3.92H23.46a3.78,3.78,0,0,0,2.5-.86,3.67,3.67,0,0,0,1.43-2.61c.05-.57,0-1.15,0-1.72V23a1.79,1.79,0,0,0,1.69-1.86C29.1,19.76,29.12,18.37,29.12,17Zm-8-8.61h1c.22,0,.45,0,.67,0a.79.79,0,0,1,.78.68c0,.3,0,.59,0,.91H6.29L6,10A1.78,1.78,0,0,1,4.39,8.47s0-.05,0-.09Zm4.46,16.37a2,2,0,0,1-2,1.81H4.77A2,2,0,0,1,3,25.5a2,2,0,0,1-.27-1q0-7,0-14a8.08,8.08,0,0,1,.09-.86h0a8.23,8.23,0,0,0,.53.78,3.44,3.44,0,0,0,2.71,1.33c2.25,0,4.51,0,6.76,0H23.5a2,2,0,0,1,2.1,2c0,.46,0,.93,0,1.39a.51.51,0,0,1,0,.09H25.3c-.87,0-1.74,0-2.61,0A3.87,3.87,0,0,0,23,23h2.6a.17.17,0,0,1,0,.05C25.6,23.62,25.63,24.19,25.58,24.75Zm1.71-3.58H23a2.06,2.06,0,1,1,0-4.12h4.32Z" transform="translate(-0.87 -6.56)" />
</svg>